ExploreSansVariable-Heavy.ufo
<glyph name="exclam" format="2">
  <advance width="290"/>
  <unicode hex="0021"/>
  <outline>
    <contour>
      <point x="53" y="716" type="line"/>
      <point x="243" y="716" type="line"/>
      <point x="216" y="244" type="line"/>
      <point x="74" y="244" type="line"/>
    </contour>
    <contour>
      <point x="145" y="198" type="curve" smooth="yes"/>
      <point x="201" y="198"/>
      <point x="247" y="151"/>
      <point x="247" y="95" type="curve" smooth="yes"/>
      <point x="247" y="39"/>
      <point x="201" y="-7"/>
      <point x="145" y="-7" type="curve" smooth="yes"/>
      <point x="89" y="-7"/>
      <point x="43" y="39"/>
      <point x="43" y="95" type="curve" smooth="yes"/>
      <point x="43" y="151"/>
      <point x="89" y="198"/>
    </contour>
  </outline>
</glyph>
<glyph name="dollar" format="2">
  <advance width="674"/>
  <unicode hex="0024"/>
  <outline>
    <contour>
      <point x="290" y="863" type="line"/>
      <point x="403" y="863" type="line"/>
      <point x="403" y="-139" type="line"/>
      <point x="290" y="-139" type="line"/>
    </contour>
    <component base="S"/>
  </outline>
</glyph>
<glyph name="ampersand" format="2">
  <advance width="756"/>
  <unicode hex="0026"/>
  <outline>
    <contour>
      <point x="371" y="716" type="curve" smooth="yes"/>
      <point x="442" y="716"/>
      <point x="486" y="706"/>
      <point x="560" y="677" type="curve"/>
      <point x="503" y="554" type="line"/>
      <point x="472" y="566"/>
      <point x="453" y="577"/>
      <point x="417" y="577" type="curve" smooth="yes"/>
      <point x="370" y="577"/>
      <point x="336" y="556"/>
      <point x="336" y="508" type="curve" smooth="yes"/>
      <point x="336" y="480"/>
      <point x="360" y="450"/>
      <point x="385" y="421" type="curve"/>
      <point x="740" y="0" type="line"/>
      <point x="524" y="0" type="line"/>
      <point x="219" y="384" type="line"/>
      <point x="173" y="438"/>
      <point x="159" y="467"/>
      <point x="159" y="534" type="curve" smooth="yes"/>
      <point x="159" y="644"/>
      <point x="229" y="716"/>
    </contour>
    <contour>
      <point x="197.485" y="426.186" type="line"/>
      <point x="285" y="322" type="line"/>
      <point x="252" y="297" type="line" smooth="yes"/>
      <point x="215.53" y="269.371"/>
      <point x="204.121" y="243.287"/>
      <point x="204.121" y="209.287" type="curve" smooth="yes"/>
      <point x="204.121" y="161.118"/>
      <point x="235.405" y="129"/>
      <point x="291.405" y="129" type="curve" smooth="yes"/>
      <point x="355.405" y="129"/>
      <point x="390.068" y="150.097"/>
      <point x="425" y="237" type="curve" smooth="yes"/>
      <point x="507" y="441" type="line"/>
      <point x="732" y="425" type="line"/>
      <point x="732" y="289" type="line"/>
      <point x="613" y="297" type="line"/>
      <point x="596" y="253"/>
      <point x="581" y="218"/>
      <point x="560" y="166" type="curve" smooth="yes"/>
      <point x="512" y="46"/>
      <point x="413" y="-8"/>
      <point x="258" y="-8" type="curve" smooth="yes"/>
      <point x="101.114" y="-8"/>
      <point x="32" y="68.7222"/>
      <point x="32" y="190.722" type="curve" smooth="yes"/>
      <point x="32" y="280.722"/>
      <point x="91.1953" y="343.428"/>
      <point x="160" y="397" type="curve" smooth="yes"/>
    </contour>
  </outline>
</glyph>
<glyph name="eight" format="2">
  <advance width="595"/>
  <unicode hex="0038"/>
  <outline>
    <contour>
      <point x="296" y="716" type="curve" smooth="yes"/>
      <point x="457" y="716"/>
      <point x="553" y="645"/>
      <point x="553" y="524" type="curve" smooth="yes"/>
      <point x="553" y="455"/>
      <point x="520" y="403"/>
      <point x="457" y="371" type="curve"/>
      <point x="533" y="339"/>
      <point x="571" y="281"/>
      <point x="571" y="198" type="curve" smooth="yes"/>
      <point x="571" y="71"/>
      <point x="467" y="-7"/>
      <point x="296" y="-7" type="curve" smooth="yes"/>
      <point x="126" y="-7"/>
      <point x="24" y="70"/>
      <point x="24" y="198" type="curve" smooth="yes"/>
      <point x="24" y="282"/>
      <point x="61" y="340"/>
      <point x="136" y="371" type="curve"/>
      <point x="74" y="403"/>
      <point x="42" y="455"/>
      <point x="42" y="524" type="curve" smooth="yes"/>
      <point x="42" y="646"/>
      <point x="135" y="716"/>
    </contour>
    <contour>
      <point x="299" y="580" type="curve" smooth="yes"/>
      <point x="248" y="580"/>
      <point x="218" y="553"/>
      <point x="218" y="506" type="curve" smooth="yes"/>
      <point x="218" y="459"/>
      <point x="246" y="434"/>
      <point x="297" y="434" type="curve" smooth="yes"/>
      <point x="349" y="434"/>
      <point x="379" y="460"/>
      <point x="379" y="506" type="curve" smooth="yes"/>
      <point x="379" y="552"/>
      <point x="348" y="580"/>
    </contour>
    <contour>
      <point x="297" y="297" type="curve" smooth="yes"/>
      <point x="243" y="297"/>
      <point x="212" y="268"/>
      <point x="212" y="219" type="curve" smooth="yes"/>
      <point x="212" y="162"/>
      <point x="241" y="133"/>
      <point x="299" y="133" type="curve" smooth="yes"/>
      <point x="348" y="133"/>
      <point x="383" y="165"/>
      <point x="383" y="211" type="curve" smooth="yes"/>
      <point x="383" y="265"/>
      <point x="351" y="297"/>
    </contour>
  </outline>
</glyph>
<glyph name="at" format="2">
  <advance width="1022"/>
  <unicode hex="0040"/>
  <outline>
    <contour>
      <point x="512" y="824" type="curve" smooth="yes"/>
      <point x="788" y="824"/>
      <point x="982" y="644"/>
      <point x="982" y="388" type="curve" smooth="yes"/>
      <point x="982" y="306"/>
      <point x="949" y="200"/>
      <point x="907" y="149" type="curve"/>
      <point x="770" y="116" type="line"/>
      <point x="613" y="207" type="line"/>
      <point x="573" y="148"/>
      <point x="510" y="116"/>
      <point x="444" y="116" type="curve" smooth="yes"/>
      <point x="331" y="116"/>
      <point x="246" y="208"/>
      <point x="246" y="325" type="curve" smooth="yes"/>
      <point x="246" y="476"/>
      <point x="335" y="577"/>
      <point x="469" y="577" type="curve" smooth="yes"/>
      <point x="515" y="577"/>
      <point x="558" y="550"/>
      <point x="584" y="509" type="curve"/>
      <point x="623" y="569" type="line"/>
      <point x="730" y="569" type="line"/>
      <point x="691" y="303" type="line"/>
      <point x="797" y="250" type="line"/>
      <point x="816" y="276"/>
      <point x="830" y="330"/>
      <point x="830" y="376" type="curve" smooth="yes"/>
      <point x="830" y="575"/>
      <point x="713" y="687"/>
      <point x="504" y="687" type="curve" smooth="yes"/>
      <point x="320" y="687"/>
      <point x="175" y="539"/>
      <point x="175" y="352" type="curve" smooth="yes"/>
      <point x="175" y="138"/>
      <point x="296" y="13"/>
      <point x="501" y="13" type="curve" smooth="yes"/>
      <point x="606" y="13"/>
      <point x="716" y="41"/>
      <point x="737" y="48" type="curve"/>
      <point x="737" y="-92" type="line"/>
      <point x="715" y="-98"/>
      <point x="615" y="-120"/>
      <point x="497" y="-120" type="curve" smooth="yes"/>
      <point x="195" y="-120"/>
      <point x="24" y="48"/>
      <point x="24" y="346" type="curve" smooth="yes"/>
      <point x="24" y="628"/>
      <point x="224" y="824"/>
    </contour>
    <contour>
      <point x="491" y="447" type="curve" smooth="yes"/>
      <point x="438" y="447"/>
      <point x="406" y="398"/>
      <point x="406" y="330" type="curve" smooth="yes"/>
      <point x="406" y="274"/>
      <point x="431" y="250"/>
      <point x="475" y="250" type="curve" smooth="yes"/>
      <point x="513" y="250"/>
      <point x="543" y="285"/>
      <point x="551" y="337" type="curve" smooth="yes"/>
      <point x="562" y="412" type="line"/>
      <point x="548" y="429"/>
      <point x="522" y="447"/>
    </contour>
  </outline>
</glyph>
<glyph name="A" format="2">
  <advance width="696"/>
  <unicode hex="0041"/>
  <anchor x="336" y="881" name="AccentCenter"/>
  <outline>
    <contour>
      <point x="231" y="708" type="line"/>
      <point x="467" y="708" type="line"/>
      <point x="692" y="0" type="line"/>
      <point x="503" y="0" type="line"/>
      <point x="460" y="153" type="line"/>
      <point x="241" y="153" type="line"/>
      <point x="196" y="0" type="line"/>
      <point x="4" y="0" type="line"/>
    </contour>
    <contour>
      <point x="348" y="528" type="line"/>
      <point x="281" y="293" type="line"/>
      <point x="421" y="293" type="line"/>
      <point x="356" y="528" type="line"/>
    </contour>
  </outline>
</glyph>
<glyph name="B" format="2">
  <advance width="673"/>
  <unicode hex="0042"/>
  <outline>
    <contour>
      <point x="64" y="708" type="line"/>
      <point x="383" y="708" type="line" smooth="yes"/>
      <point x="507" y="708"/>
      <point x="610" y="642"/>
      <point x="610" y="531" type="curve" smooth="yes"/>
      <point x="610" y="436"/>
      <point x="566" y="390"/>
      <point x="508" y="373" type="curve"/>
      <point x="591" y="356"/>
      <point x="641" y="310"/>
      <point x="641" y="196" type="curve" smooth="yes"/>
      <point x="641" y="56"/>
      <point x="519" y="0"/>
      <point x="403" y="0" type="curve" smooth="yes"/>
      <point x="64" y="0" type="line"/>
    </contour>
    <contour>
      <point x="256" y="548" type="line"/>
      <point x="256" y="437" type="line"/>
      <point x="350" y="437" type="line" smooth="yes"/>
      <point x="394" y="437"/>
      <point x="418" y="456"/>
      <point x="418" y="494" type="curve" smooth="yes"/>
      <point x="418" y="528"/>
      <point x="395" y="548"/>
      <point x="351" y="548" type="curve" smooth="yes"/>
    </contour>
    <contour>
      <point x="256" y="297" type="line"/>
      <point x="256" y="160" type="line"/>
      <point x="362" y="160" type="line" smooth="yes"/>
      <point x="418" y="160"/>
      <point x="449" y="179"/>
      <point x="449" y="228" type="curve" smooth="yes"/>
      <point x="449" y="279"/>
      <point x="419" y="297"/>
      <point x="359" y="297" type="curve" smooth="yes"/>
    </contour>
  </outline>
</glyph>
<glyph name="C" format="2">
  <advance width="665"/>
  <unicode hex="0043"/>
  <outline>
    <contour>
      <point x="374" y="716" type="curve" smooth="yes"/>
      <point x="487" y="716"/>
      <point x="552" y="687"/>
      <point x="641" y="618" type="curve"/>
      <point x="560" y="503" type="line"/>
      <point x="511" y="544"/>
      <point x="463" y="564"/>
      <point x="392" y="564" type="curve" smooth="yes"/>
      <point x="287" y="564"/>
      <point x="224" y="485"/>
      <point x="224" y="353" type="curve" smooth="yes"/>
      <point x="224" y="218"/>
      <point x="281" y="144"/>
      <point x="395" y="144" type="curve" smooth="yes"/>
      <point x="450" y="144"/>
      <point x="522" y="158"/>
      <point x="579" y="210" type="curve"/>
      <point x="655" y="87" type="line"/>
      <point x="598" y="40"/>
      <point x="511" y="-8"/>
      <point x="375" y="-8" type="curve" smooth="yes"/>
      <point x="168" y="-8"/>
      <point x="32" y="132"/>
      <point x="32" y="353" type="curve" smooth="yes"/>
      <point x="32" y="577"/>
      <point x="177" y="716"/>
    </contour>
  </outline>
</glyph>
<glyph name="G" format="2">
  <advance width="700"/>
  <unicode hex="0047"/>
  <outline>
    <contour>
      <point x="383" y="716" type="curve" smooth="yes"/>
      <point x="476" y="716"/>
      <point x="558" y="697"/>
      <point x="646" y="624" type="curve"/>
      <point x="558" y="505" type="line"/>
      <point x="506" y="543"/>
      <point x="469" y="561"/>
      <point x="391" y="561" type="curve" smooth="yes"/>
      <point x="285" y="561"/>
      <point x="224" y="476"/>
      <point x="224" y="349" type="curve" smooth="yes"/>
      <point x="224" y="203"/>
      <point x="293" y="143"/>
      <point x="407" y="143" type="curve" smooth="yes"/>
      <point x="441" y="143"/>
      <point x="467" y="147"/>
      <point x="474" y="148" type="curve"/>
      <point x="474" y="282" type="line"/>
      <point x="362" y="282" type="line"/>
      <point x="362" y="421" type="line"/>
      <point x="652" y="421" type="line"/>
      <point x="652" y="33" type="line"/>
      <point x="621" y="22"/>
      <point x="512" y="-8"/>
      <point x="395" y="-8" type="curve" smooth="yes"/>
      <point x="164" y="-8"/>
      <point x="32" y="98"/>
      <point x="32" y="352" type="curve" smooth="yes"/>
      <point x="32" y="601"/>
      <point x="168" y="716"/>
    </contour>
  </outline>
</glyph>
<glyph name="S" format="2">
  <advance width="674"/>
  <unicode hex="0053"/>
  <outline>
    <contour>
      <point x="357" y="716" type="curve" smooth="yes"/>
      <point x="456" y="716"/>
      <point x="555" y="688"/>
      <point x="637" y="623" type="curve"/>
      <point x="557" y="504" type="line"/>
      <point x="513" y="535"/>
      <point x="440" y="562"/>
      <point x="359" y="562" type="curve" smooth="yes"/>
      <point x="285" y="562"/>
      <point x="251" y="536"/>
      <point x="251" y="496" type="curve" smooth="yes"/>
      <point x="251" y="456"/>
      <point x="271" y="447"/>
      <point x="349" y="433" type="curve" smooth="yes"/>
      <point x="410" y="422" type="line" smooth="yes"/>
      <point x="573" y="395"/>
      <point x="642" y="326"/>
      <point x="642" y="208" type="curve" smooth="yes"/>
      <point x="642" y="68"/>
      <point x="534" y="-8"/>
      <point x="320" y="-8" type="curve" smooth="yes"/>
      <point x="218" y="-8"/>
      <point x="82" y="30"/>
      <point x="32" y="75" type="curve"/>
      <point x="111" y="203" type="line"/>
      <point x="169" y="159"/>
      <point x="244" y="139"/>
      <point x="327" y="139" type="curve" smooth="yes"/>
      <point x="409" y="139"/>
      <point x="454" y="162"/>
      <point x="454" y="202" type="curve" smooth="yes"/>
      <point x="454" y="245"/>
      <point x="429" y="258"/>
      <point x="342" y="273" type="curve" smooth="yes"/>
      <point x="287" y="283" type="line" smooth="yes"/>
      <point x="141" y="307"/>
      <point x="62" y="374"/>
      <point x="62" y="505" type="curve" smooth="yes"/>
      <point x="62" y="636"/>
      <point x="163" y="716"/>
    </contour>
  </outline>
</glyph>
<glyph name="U" format="2">
  <advance width="732"/>
  <unicode hex="0055"/>
  <anchor x="354" y="880" name="AccentCenter"/>
  <outline>
    <contour>
      <point x="64" y="708" type="line"/>
      <point x="256" y="708" type="line"/>
      <point x="256" y="299" type="line"/>
      <point x="256" y="208"/>
      <point x="285" y="153"/>
      <point x="366" y="153" type="curve" smooth="yes"/>
      <point x="447" y="153"/>
      <point x="476" y="208"/>
      <point x="476" y="299" type="curve"/>
      <point x="476" y="708" type="line"/>
      <point x="668" y="708" type="line"/>
      <point x="668" y="281" type="line"/>
      <point x="668" y="80"/>
      <point x="536" y="-7"/>
      <point x="365" y="-7" type="curve" smooth="yes"/>
      <point x="183" y="-7"/>
      <point x="64" y="80"/>
      <point x="64" y="283" type="curve"/>
    </contour>
  </outline>
</glyph>
<glyph name="Y" format="2">
  <advance width="655"/>
  <unicode hex="0059"/>
  <anchor x="326" y="880" name="AccentCenter"/>
  <outline>
    <contour>
      <point x="8" y="708" type="line"/>
      <point x="192" y="708" type="line"/>
      <point x="329" y="406" type="line"/>
      <point x="462" y="708" type="line"/>
      <point x="647" y="708" type="line"/>
      <point x="424" y="270" type="line"/>
      <point x="424" y="0" type="line"/>
      <point x="232" y="0" type="line"/>
      <point x="232" y="269" type="line"/>
    </contour>
  </outline>
</glyph>
<glyph name="Z" format="2">
  <advance width="694"/>
  <unicode hex="005A"/>
  <outline>
    <contour>
      <point x="64" y="708" type="line"/>
      <point x="630" y="708" type="line"/>
      <point x="630" y="580" type="line"/>
      <point x="302" y="160" type="line"/>
      <point x="630" y="160" type="line"/>
      <point x="630" y="0" type="line"/>
      <point x="64" y="0" type="line"/>
      <point x="64" y="128" type="line"/>
      <point x="395" y="548" type="line"/>
      <point x="64" y="548" type="line"/>
    </contour>
  </outline>
</glyph>
<glyph name="a" format="2">
  <advance width="581"/>
  <unicode hex="0061"/>
  <anchor x="283" y="687" name="AccentCenter"/>
  <anchor x="281" y="687" name="Ring"/>
  <outline>
    <contour>
      <point x="262" y="528" type="curve" smooth="yes"/>
      <point x="429" y="528"/>
      <point x="516" y="452"/>
      <point x="516" y="307" type="curve" smooth="yes"/>
      <point x="516" y="124" type="line"/>
      <point x="592" y="116" type="line"/>
      <point x="583" y="-8" type="line"/>
      <point x="370" y="7" type="line"/>
      <point x="351" y="61" type="line"/>
      <point x="306" y="15"/>
      <point x="277" y="-8"/>
      <point x="183" y="-8" type="curve" smooth="yes"/>
      <point x="93" y="-8"/>
      <point x="32" y="49"/>
      <point x="32" y="139" type="curve" smooth="yes"/>
      <point x="32" y="248"/>
      <point x="131" y="316"/>
      <point x="271" y="316" type="curve" smooth="yes"/>
      <point x="334" y="316" type="line"/>
      <point x="334" y="333" type="line" smooth="yes"/>
      <point x="334" y="381"/>
      <point x="302" y="406"/>
      <point x="242" y="406" type="curve" smooth="yes"/>
      <point x="197" y="406"/>
      <point x="140" y="390"/>
      <point x="116" y="371" type="curve"/>
      <point x="61" y="473" type="line"/>
      <point x="118" y="510"/>
      <point x="183" y="528"/>
    </contour>
    <contour>
      <point x="334" y="205" type="line"/>
      <point x="282" y="205" type="line" smooth="yes"/>
      <point x="246" y="205"/>
      <point x="216" y="191"/>
      <point x="216" y="162" type="curve" smooth="yes"/>
      <point x="216" y="134"/>
      <point x="235" y="117"/>
      <point x="266" y="117" type="curve" smooth="yes"/>
      <point x="296" y="117"/>
      <point x="320" y="130"/>
      <point x="334" y="155" type="curve"/>
    </contour>
  </outline>
</glyph>
<glyph name="e" format="2">
  <advance width="605"/>
  <unicode hex="0065"/>
  <anchor x="311" y="686" name="AccentCenter"/>
  <outline>
    <contour>
      <point x="312" y="528" type="curve" smooth="yes"/>
      <point x="466" y="528"/>
      <point x="573" y="437"/>
      <point x="573" y="286" type="curve" smooth="yes"/>
      <point x="573" y="259"/>
      <point x="569" y="229"/>
      <point x="562" y="212" type="curve"/>
      <point x="224" y="212" type="line"/>
      <point x="224" y="166"/>
      <point x="263" y="124"/>
      <point x="341" y="124" type="curve" smooth="yes"/>
      <point x="417" y="124"/>
      <point x="474" y="157"/>
      <point x="494" y="173" type="curve"/>
      <point x="561" y="65" type="line"/>
      <point x="497" y="30"/>
      <point x="425" y="-8"/>
      <point x="303" y="-8" type="curve" smooth="yes"/>
      <point x="140" y="-8"/>
      <point x="32" y="90"/>
      <point x="32" y="261" type="curve" smooth="yes"/>
      <point x="32" y="436"/>
      <point x="144" y="528"/>
    </contour>
    <contour>
      <point x="308" y="399" type="curve" smooth="yes"/>
      <point x="257" y="399"/>
      <point x="224" y="368"/>
      <point x="224" y="310" type="curve"/>
      <point x="393" y="310" type="line"/>
      <point x="393" y="315" type="line" smooth="yes"/>
      <point x="393" y="371"/>
      <point x="359" y="399"/>
    </contour>
  </outline>
</glyph>
<glyph name="f" format="2">
  <advance width="460"/>
  <unicode hex="0066"/>
  <outline>
    <contour>
      <point x="320" y="732" type="curve" smooth="yes"/>
      <point x="376" y="732"/>
      <point x="419" y="729"/>
      <point x="436" y="727" type="curve"/>
      <point x="423" y="601" type="line"/>
      <point x="372" y="605" type="line"/>
      <point x="329" y="605"/>
      <point x="308" y="587"/>
      <point x="308" y="538" type="curve" smooth="yes"/>
      <point x="308" y="520" type="line"/>
      <point x="424" y="520" type="line"/>
      <point x="424" y="370" type="line"/>
      <point x="308" y="370" type="line"/>
      <point x="308" y="0" type="line"/>
      <point x="116" y="0" type="line"/>
      <point x="116" y="370" type="line"/>
      <point x="24" y="370" type="line"/>
      <point x="24" y="520" type="line"/>
      <point x="116" y="520" type="line"/>
      <point x="116" y="542" type="line" smooth="yes"/>
      <point x="116" y="662"/>
      <point x="181" y="732"/>
    </contour>
  </outline>
</glyph>
<glyph name="g" format="2">
  <advance width="620"/>
  <unicode hex="0067"/>
  <outline>
    <contour>
      <point x="264" y="528" type="curve" smooth="yes"/>
      <point x="348" y="528"/>
      <point x="398" y="507"/>
      <point x="426" y="488" type="curve"/>
      <point x="570" y="520" type="line"/>
      <point x="593" y="520" type="line"/>
      <point x="592" y="379" type="line"/>
      <point x="492" y="379" type="line"/>
      <point x="496" y="373"/>
      <point x="500" y="352"/>
      <point x="500" y="338" type="curve" smooth="yes"/>
      <point x="500" y="237"/>
      <point x="411" y="179"/>
      <point x="296" y="179" type="curve" smooth="yes"/>
      <point x="270" y="179"/>
      <point x="255" y="180"/>
      <point x="255" y="180" type="curve"/>
      <point x="221" y="152" type="line"/>
      <point x="415" y="138" type="line" smooth="yes"/>
      <point x="537" y="129"/>
      <point x="600" y="79"/>
      <point x="600" y="-10" type="curve" smooth="yes"/>
      <point x="600" y="-152"/>
      <point x="483" y="-192"/>
      <point x="309" y="-192" type="curve" smooth="yes"/>
      <point x="184" y="-192"/>
      <point x="91" y="-174"/>
      <point x="17" y="-138" type="curve"/>
      <point x="17" y="-60" type="line"/>
      <point x="112" y="22" type="line"/>
      <point x="26" y="29" type="line"/>
      <point x="26" y="122" type="line"/>
      <point x="126" y="208" type="line"/>
      <point x="72" y="228"/>
      <point x="33" y="284"/>
      <point x="33" y="354" type="curve" smooth="yes"/>
      <point x="33" y="463"/>
      <point x="122" y="528"/>
    </contour>
    <contour>
      <point x="275" y="10" type="line"/>
      <point x="209" y="-54" type="line"/>
      <point x="231" y="-60"/>
      <point x="268" y="-71"/>
      <point x="329" y="-71" type="curve" smooth="yes"/>
      <point x="385" y="-71"/>
      <point x="408" y="-58"/>
      <point x="408" y="-33" type="curve" smooth="yes"/>
      <point x="408" y="-11"/>
      <point x="396" y="0"/>
      <point x="364" y="3" type="curve" smooth="yes"/>
    </contour>
    <contour>
      <point x="266" y="413" type="curve" smooth="yes"/>
      <point x="233" y="413"/>
      <point x="214" y="394"/>
      <point x="214" y="354" type="curve" smooth="yes"/>
      <point x="214" y="314"/>
      <point x="233" y="294"/>
      <point x="266" y="294" type="curve" smooth="yes"/>
      <point x="300" y="294"/>
      <point x="319" y="315"/>
      <point x="319" y="354" type="curve" smooth="yes"/>
      <point x="319" y="392"/>
      <point x="300" y="413"/>
    </contour>
  </outline>
</glyph>
<glyph name="j" format="2">
  <advance width="330"/>
  <unicode hex="006A"/>
  <outline>
    <contour>
      <point x="74" y="520" type="line"/>
      <point x="266" y="520" type="line"/>
      <point x="266" y="22" type="line"/>
      <point x="266" y="-123"/>
      <point x="215" y="-191"/>
      <point x="25" y="-191" type="curve"/>
      <point x="4" y="-191" type="line"/>
      <point x="4" y="-34" type="line"/>
      <point x="25" y="-34" type="line"/>
      <point x="61" y="-34"/>
      <point x="74" y="-20"/>
      <point x="74" y="16" type="curve"/>
    </contour>
    <contour>
      <point x="169" y="747" type="curve" smooth="yes"/>
      <point x="222" y="747"/>
      <point x="266" y="704"/>
      <point x="266" y="651" type="curve" smooth="yes"/>
      <point x="266" y="598"/>
      <point x="222" y="554"/>
      <point x="169" y="554" type="curve" smooth="yes"/>
      <point x="116" y="554"/>
      <point x="72" y="598"/>
      <point x="72" y="651" type="curve" smooth="yes"/>
      <point x="72" y="704"/>
      <point x="116" y="747"/>
    </contour>
  </outline>
</glyph>
<glyph name="n" format="2">
  <advance width="652"/>
  <unicode hex="006E"/>
  <anchor x="346" y="687" name="AccentCenter"/>
  <outline>
    <contour>
      <point x="64" y="520" type="line"/>
      <point x="213" y="520" type="line"/>
      <point x="256" y="443" type="line"/>
      <point x="284" y="500"/>
      <point x="342" y="528"/>
      <point x="409" y="528" type="curve" smooth="yes"/>
      <point x="524" y="528"/>
      <point x="588" y="449"/>
      <point x="588" y="318" type="curve" smooth="yes"/>
      <point x="588" y="0" type="line"/>
      <point x="396" y="0" type="line"/>
      <point x="396" y="304" type="line" smooth="yes"/>
      <point x="396" y="360"/>
      <point x="372" y="379"/>
      <point x="333" y="379" type="curve" smooth="yes"/>
      <point x="300" y="379"/>
      <point x="266" y="355"/>
      <point x="256" y="328" type="curve"/>
      <point x="256" y="0" type="line"/>
      <point x="64" y="0" type="line"/>
    </contour>
  </outline>
</glyph>
<glyph name="o" format="2">
  <advance width="635"/>
  <unicode hex="006F"/>
  <anchor x="328" y="686" name="AccentCenter"/>
  <outline>
    <contour>
      <point x="317" y="387" type="curve" smooth="yes"/>
      <point x="253" y="387"/>
      <point x="224" y="337"/>
      <point x="224" y="254" type="curve" smooth="yes"/>
      <point x="224" y="179"/>
      <point x="252" y="134"/>
      <point x="317" y="134" type="curve" smooth="yes"/>
      <point x="379" y="134"/>
      <point x="411" y="182"/>
      <point x="411" y="258" type="curve" smooth="yes"/>
      <point x="411" y="336"/>
      <point x="379" y="387"/>
    </contour>
    <contour>
      <point x="317" y="528" type="curve" smooth="yes"/>
      <point x="492" y="528"/>
      <point x="603" y="428"/>
      <point x="603" y="261" type="curve" smooth="yes"/>
      <point x="603" y="93"/>
      <point x="491" y="-8"/>
      <point x="317" y="-8" type="curve" smooth="yes"/>
      <point x="148" y="-8"/>
      <point x="32" y="91"/>
      <point x="32" y="259" type="curve" smooth="yes"/>
      <point x="32" y="431"/>
      <point x="143" y="528"/>
    </contour>
  </outline>
</glyph>
<glyph name="p" format="2">
  <advance width="660"/>
  <unicode hex="0070"/>
  <outline>
    <contour>
      <point x="344" y="388" type="curve" smooth="yes"/>
      <point x="305" y="388"/>
      <point x="270" y="366"/>
      <point x="252" y="330" type="curve"/>
      <point x="252" y="189" type="line"/>
      <point x="271" y="151"/>
      <point x="306" y="128"/>
      <point x="340" y="128" type="curve" smooth="yes"/>
      <point x="404" y="128"/>
      <point x="436" y="172"/>
      <point x="436" y="260" type="curve" smooth="yes"/>
      <point x="436" y="341"/>
      <point x="403" y="388"/>
    </contour>
    <contour>
      <point x="64" y="520" type="line"/>
      <point x="214" y="520" type="line"/>
      <point x="252" y="460" type="line"/>
      <point x="280" y="504"/>
      <point x="328" y="528"/>
      <point x="390" y="528" type="curve" smooth="yes"/>
      <point x="529" y="528"/>
      <point x="628" y="416"/>
      <point x="628" y="259" type="curve" smooth="yes"/>
      <point x="628" y="100"/>
      <point x="535" y="-8"/>
      <point x="399" y="-8" type="curve" smooth="yes"/>
      <point x="331" y="-8"/>
      <point x="284" y="10"/>
      <point x="252" y="51" type="curve"/>
      <point x="252" y="-192" type="line"/>
      <point x="64" y="-192" type="line"/>
    </contour>
  </outline>
</glyph>
<glyph name="q" format="2">
  <advance width="660"/>
  <unicode hex="0071"/>
  <outline>
    <contour>
      <point x="316" y="388" type="curve" smooth="yes"/>
      <point x="258" y="388"/>
      <point x="224" y="339"/>
      <point x="224" y="256" type="curve" smooth="yes"/>
      <point x="224" y="172"/>
      <point x="257" y="128"/>
      <point x="320" y="128" type="curve" smooth="yes"/>
      <point x="356" y="128"/>
      <point x="389" y="151"/>
      <point x="408" y="187" type="curve"/>
      <point x="408" y="332" type="line"/>
      <point x="387" y="368"/>
      <point x="353" y="388"/>
    </contour>
    <contour>
      <point x="446" y="520" type="line"/>
      <point x="596" y="520" type="line"/>
      <point x="596" y="-192" type="line"/>
      <point x="408" y="-192" type="line"/>
      <point x="408" y="53" type="line"/>
      <point x="376" y="12"/>
      <point x="328" y="-8"/>
      <point x="261" y="-8" type="curve" smooth="yes"/>
      <point x="125" y="-8"/>
      <point x="32" y="100"/>
      <point x="32" y="259" type="curve" smooth="yes"/>
      <point x="32" y="419"/>
      <point x="126" y="528"/>
      <point x="263" y="528" type="curve" smooth="yes"/>
      <point x="326" y="528"/>
      <point x="381" y="501"/>
      <point x="408" y="455" type="curve"/>
    </contour>
  </outline>
</glyph>
<glyph name="s" format="2">
  <advance width="563"/>
  <unicode hex="0073"/>
  <outline>
    <contour>
      <point x="299" y="528" type="curve" smooth="yes"/>
      <point x="387" y="528"/>
      <point x="461" y="504"/>
      <point x="517" y="462" type="curve"/>
      <point x="447" y="361" type="line"/>
      <point x="408" y="386"/>
      <point x="352" y="404"/>
      <point x="296" y="404" type="curve" smooth="yes"/>
      <point x="254" y="404"/>
      <point x="223" y="389"/>
      <point x="223" y="368" type="curve" smooth="yes"/>
      <point x="223" y="349"/>
      <point x="242" y="338"/>
      <point x="285" y="331" type="curve" smooth="yes"/>
      <point x="368" y="318" type="line" smooth="yes"/>
      <point x="475" y="301"/>
      <point x="531" y="244"/>
      <point x="531" y="154" type="curve" smooth="yes"/>
      <point x="531" y="45"/>
      <point x="446" y="-8"/>
      <point x="269" y="-8" type="curve" smooth="yes"/>
      <point x="165" y="-8"/>
      <point x="75" y="18"/>
      <point x="32" y="58" type="curve"/>
      <point x="98" y="161" type="line"/>
      <point x="127" y="135"/>
      <point x="204" y="112"/>
      <point x="275" y="112" type="curve" smooth="yes"/>
      <point x="327" y="112"/>
      <point x="361" y="125"/>
      <point x="361" y="145" type="curve" smooth="yes"/>
      <point x="361" y="167"/>
      <point x="344" y="177"/>
      <point x="296" y="184" type="curve" smooth="yes"/>
      <point x="218" y="195" type="line" smooth="yes"/>
      <point x="110" y="211"/>
      <point x="54" y="270"/>
      <point x="53" y="367" type="curve" smooth="yes"/>
      <point x="53" y="470"/>
      <point x="142" y="528"/>
    </contour>
  </outline>
</glyph>
<glyph name="braceright" format="2">
  <advance width="357"/>
  <unicode hex="007D"/>
  <outline>
    <contour>
      <point x="42" y="819" type="line"/>
      <point x="166" y="819"/>
      <point x="280" y="740"/>
      <point x="292" y="610" type="curve"/>
      <point x="266" y="506" type="line"/>
      <point x="274" y="472"/>
      <point x="306" y="457"/>
      <point x="338" y="457" type="curve"/>
      <point x="338" y="308" type="line"/>
      <point x="296" y="308"/>
      <point x="273" y="285"/>
      <point x="266" y="250" type="curve"/>
      <point x="298" y="141" type="line"/>
      <point x="285" y="44"/>
      <point x="202" y="-64"/>
      <point x="42" y="-64" type="curve"/>
      <point x="42" y="80" type="line"/>
      <point x="95" y="80"/>
      <point x="131" y="110"/>
      <point x="134" y="149" type="curve"/>
      <point x="110" y="240" type="line"/>
      <point x="110" y="313"/>
      <point x="162" y="363"/>
      <point x="219" y="384" type="curve"/>
      <point x="173" y="398"/>
      <point x="110" y="444"/>
      <point x="110" y="514" type="curve"/>
      <point x="134" y="606" type="line"/>
      <point x="126" y="652"/>
      <point x="92" y="675"/>
      <point x="42" y="675" type="curve"/>
    </contour>
  </outline>
</glyph>
<glyph name="asciitilde" format="2">
  <advance width="713"/>
  <unicode hex="007E"/>
  <outline>
    <contour>
      <point x="40" y="265" type="line"/>
      <point x="40" y="265"/>
      <point x="81" y="386"/>
      <point x="271" y="386" type="curve" smooth="yes"/>
      <point x="346" y="386"/>
      <point x="402" y="329"/>
      <point x="473" y="329" type="curve" smooth="yes"/>
      <point x="531" y="329"/>
      <point x="573" y="384"/>
      <point x="573" y="384" type="curve"/>
      <point x="673" y="343" type="line"/>
      <point x="673" y="343"/>
      <point x="629" y="225"/>
      <point x="465" y="225" type="curve" smooth="yes"/>
      <point x="382" y="225"/>
      <point x="336" y="283"/>
      <point x="271" y="283" type="curve" smooth="yes"/>
      <point x="196" y="283"/>
      <point x="140" y="225"/>
      <point x="140" y="225" type="curve"/>
    </contour>
  </outline>
</glyph>
<glyph name="sterling" format="2">
  <advance width="636"/>
  <unicode hex="00A3"/>
  <outline>
    <contour>
      <point x="367" y="716" type="curve" smooth="yes"/>
      <point x="477" y="716"/>
      <point x="527" y="684"/>
      <point x="586" y="646" type="curve"/>
      <point x="513" y="525" type="line"/>
      <point x="464" y="555"/>
      <point x="433" y="572"/>
      <point x="377" y="572" type="curve" smooth="yes"/>
      <point x="320" y="572"/>
      <point x="283" y="544"/>
      <point x="283" y="496" type="curve" smooth="yes"/>
      <point x="283" y="473"/>
      <point x="286" y="454"/>
      <point x="291" y="438" type="curve"/>
      <point x="482" y="438" type="line"/>
      <point x="482" y="285" type="line"/>
      <point x="343" y="285" type="line"/>
      <point x="343" y="280"/>
      <point x="344" y="274"/>
      <point x="344" y="268" type="curve" smooth="yes"/>
      <point x="344" y="223"/>
      <point x="327" y="182"/>
      <point x="282" y="154" type="curve"/>
      <point x="588" y="154" type="line"/>
      <point x="588" y="0" type="line"/>
      <point x="59" y="0" type="line"/>
      <point x="59" y="160" type="line"/>
      <point x="105" y="168"/>
      <point x="168" y="194"/>
      <point x="168" y="267" type="curve" smooth="yes"/>
      <point x="168" y="273"/>
      <point x="168" y="279"/>
      <point x="167" y="285" type="curve"/>
      <point x="33" y="285" type="line"/>
      <point x="33" y="438" type="line"/>
      <point x="118" y="438" type="line"/>
      <point x="111" y="459"/>
      <point x="107" y="483"/>
      <point x="107" y="510" type="curve" smooth="yes"/>
      <point x="107" y="632"/>
      <point x="207" y="716"/>
    </contour>
  </outline>
</glyph>
<glyph name="yen" format="2">
  <advance width="647"/>
  <unicode hex="00A5"/>
  <outline>
    <contour>
      <point x="81" y="379" type="line"/>
      <point x="570" y="379" type="line"/>
      <point x="570" y="271" type="line"/>
      <point x="81" y="271" type="line"/>
    </contour>
    <contour>
      <point x="81" y="190" type="line"/>
      <point x="570" y="190" type="line"/>
      <point x="570" y="82" type="line"/>
      <point x="81" y="82" type="line"/>
    </contour>
    <component base="Y"/>
  </outline>
</glyph>
<glyph name="mu" format="2">
  <advance width="687"/>
  <unicode hex="00B5"/>
  <outline>
    <contour>
      <point x="56" y="520" type="line"/>
      <point x="248" y="520" type="line"/>
      <point x="248" y="158" type="line"/>
      <point x="250" y="152"/>
      <point x="284" y="123"/>
      <point x="337" y="123" type="curve" smooth="yes"/>
      <point x="392" y="123"/>
      <point x="421" y="155"/>
      <point x="421" y="210" type="curve" smooth="yes"/>
      <point x="421" y="520" type="line"/>
      <point x="601" y="520" type="line"/>
      <point x="601" y="162" type="line"/>
      <point x="601" y="125"/>
      <point x="619" y="108"/>
      <point x="659" y="108" type="curve"/>
      <point x="667" y="108" type="line"/>
      <point x="667" y="0" type="line"/>
      <point x="648" y="-4"/>
      <point x="597" y="-8"/>
      <point x="574" y="-8" type="curve"/>
      <point x="505" y="-8"/>
      <point x="450" y="22"/>
      <point x="436" y="55" type="curve"/>
      <point x="418" y="13"/>
      <point x="373" y="-8"/>
      <point x="333" y="-8" type="curve" smooth="yes"/>
      <point x="280" y="-8"/>
      <point x="234" y="13"/>
      <point x="210" y="41" type="curve"/>
      <point x="234" y="13"/>
      <point x="248" y="-14"/>
      <point x="248" y="-44" type="curve"/>
      <point x="248" y="-192" type="line"/>
      <point x="56" y="-192" type="line"/>
    </contour>
  </outline>
</glyph>
<glyph name="uni0304" format="2">
  <advance width="0"/>
  <unicode hex="0304"/>
  <anchor x="0" y="833" name="AccentCenter"/>
  <outline>
    <contour>
      <point x="-156" y="885" type="line"/>
      <point x="156" y="885" type="line"/>
      <point x="156" y="781" type="line"/>
      <point x="-156" y="781" type="line"/>
    </contour>
  </outline>
</glyph>
